<svg width="28" height="28" viewBox="0 0 28 28" fill="none" xmlns="http://www.w3.org/2000/svg">
<g clip-path="url(#clip0)">
<path d="M6.475 19.25L7.2975 16.5515H10.8045L11.627 19.25H13.8338L10.3268 8.75176H7.89775L4.375 19.25H6.475ZM9.10525 10.759L10.3897 15.0045H7.728L9.0125 10.759H9.10525ZM17.4335 10.983C15.5802 10.983 14.3657 12.3218 14.3657 14.5583V15.7745C14.3657 18.0128 15.5645 19.3498 17.4108 19.3498C18.5955 19.3498 19.5492 18.7723 19.803 17.9428H19.9028V19.25H21.8942V8.19876H19.8642V12.3288H19.7715C19.4565 11.4975 18.5815 10.9813 17.4335 10.9813V10.983ZM18.1107 12.5983C19.1257 12.5983 19.8642 13.3683 19.8642 14.5898V15.6433C19.8642 16.9733 19.1712 17.7433 18.1422 17.7433C17.0957 17.7433 16.4413 16.9575 16.4413 15.5593V14.7665C16.4413 13.3753 17.0887 12.5965 18.1107 12.5965V12.5983Z" fill="#222222"/>
<path d="M24.5 5.25C24.9641 5.25 25.4092 5.43437 25.7374 5.76256C26.0656 6.09075 26.25 6.53587 26.25 7V21C26.25 21.4641 26.0656 21.9092 25.7374 22.2374C25.4092 22.5656 24.9641 22.75 24.5 22.75H3.5C3.03587 22.75 2.59075 22.5656 2.26256 22.2374C1.93437 21.9092 1.75 21.4641 1.75 21V7C1.75 6.53587 1.93437 6.09075 2.26256 5.76256C2.59075 5.43437 3.03587 5.25 3.5 5.25H24.5ZM3.5 3.5C2.57174 3.5 1.6815 3.86875 1.02513 4.52513C0.368749 5.1815 0 6.07174 0 7L0 21C0 21.9283 0.368749 22.8185 1.02513 23.4749C1.6815 24.1313 2.57174 24.5 3.5 24.5H24.5C25.4283 24.5 26.3185 24.1313 26.9749 23.4749C27.6313 22.8185 28 21.9283 28 21V7C28 6.07174 27.6313 5.1815 26.9749 4.52513C26.3185 3.86875 25.4283 3.5 24.5 3.5H3.5Z" fill="#222222"/>
</g>
<defs>
<clipPath id="clip0">
<rect width="28" height="28" fill="white"/>
</clipPath>
</defs>
</svg>
